<svg width="28" height="28" viewBox="0 0 28 28" fill="none" xmlns="http://www.w3.org/2000/svg">
<g clip-path="url(#clip0_193_10664)">
<path d="M1.75 18.375H25.1125C26.075 18.375 26.95 17.9375 27.475 17.15C28 16.3625 28.175 15.4875 27.825 14.6125C26.6 11.1125 23.275 8.75 19.425 8.75H1.75C1.225 8.75 0.875 9.1 0.875 9.625V17.5C0.875 18.025 1.225 18.375 1.75 18.375ZM13.125 13.125V10.5H16.625V13.125H13.125ZM11.375 13.125H7.875V10.5H11.375V13.125ZM25.025 13.125H18.375V10.5H19.5125C21.7 10.5 23.7125 11.4625 25.025 13.125ZM6.125 10.5V13.125H2.625V10.5H6.125Z" fill="black"/>
<path d="M27.125 20.125H0.875C0.35 20.125 0 20.475 0 21C0 21.525 0.35 21.875 0.875 21.875H27.125C27.65 21.875 28 21.525 28 21C28 20.475 27.65 20.125 27.125 20.125Z" fill="black"/>
</g>
<defs>
<clipPath id="clip0_193_10664">
<rect width="28" height="28" fill="white"/>
</clipPath>
</defs>
</svg>
