<svg width="28" height="28" viewBox="0 0 28 28" fill="none" xmlns="http://www.w3.org/2000/svg">
<path d="M20.9456 6.28958L24.0633 12.5511C24.1184 12.6333 24.1455 12.7427 24.1726 12.825C24.3643 13.3176 24.5008 14.001 24.5008 14.4385V17.4187C24.5008 18.3488 23.8716 19.1145 22.9966 19.3332V21.0832C22.9966 21.9311 22.3133 22.5873 21.4925 22.5873C20.6446 22.5873 19.9884 21.9311 19.9884 21.0832V19.3875H8.0114V21.0832C8.0114 21.9311 7.35515 22.5873 6.50727 22.5873C5.68652 22.5873 5.00315 21.9311 5.00315 21.0832V19.3332C4.12815 19.1145 3.49902 18.3488 3.49902 17.4187V14.4385C3.49902 14.001 3.63552 13.3176 3.82715 12.825C3.85427 12.7427 3.88227 12.6333 3.93652 12.5511L7.05415 6.28958C7.30002 5.82495 7.95627 5.38745 8.50315 5.38745H19.4958C20.0426 5.38745 20.6998 5.82495 20.9456 6.28958ZM8.33952 8.17608L6.67177 11.9771C6.58952 12.1136 6.58952 12.2781 6.58952 12.3875H21.4103C21.4103 12.2781 21.4103 12.1136 21.328 11.9771L19.6603 8.17608C19.4415 7.68345 18.7853 7.24595 18.2655 7.24595H9.73427C9.21452 7.24595 8.55827 7.68345 8.33952 8.17608ZM7.6019 17.4178C8.4769 17.4178 9.16027 16.7065 9.16027 15.8043C9.16027 14.9293 8.4769 14.246 7.6019 14.246C6.7269 14.246 5.9884 14.9293 5.9884 15.8043C5.9884 16.7065 6.7269 17.4178 7.6019 17.4178ZM20.3988 17.4178C21.2738 17.4178 22.0123 16.7065 22.0123 15.8043C22.0123 14.9293 21.2738 14.246 20.3988 14.246C19.5238 14.246 18.8404 14.9293 18.8404 15.8043C18.8404 16.7065 19.5238 17.4178 20.3988 17.4178Z" fill="black"/>
</svg>
