<svg width="20" height="20" viewBox="0 0 20 20" fill="none" xmlns="http://www.w3.org/2000/svg">
<g clip-path="url(#clip0_218_12768)">
<path d="M0 5.19648V17.2213C0 17.6144 0.39687 17.8831 0.761796 17.7373L5.55549 15.5554V2.22222L0.698602 4.1649C0.492417 4.24737 0.315666 4.38972 0.191147 4.57359C0.0666272 4.75746 4.93816e-05 4.97442 0 5.19648ZM6.66658 15.5554L13.3332 17.7776V4.44441L6.66658 2.22222V15.5554ZM19.238 2.26249L14.4443 4.44441V17.7776L19.3011 15.8349C19.5074 15.7525 19.6841 15.6101 19.8087 15.4262C19.9332 15.2424 19.9997 15.0254 19.9998 14.8033V2.77846C19.9998 2.38541 19.6029 2.11666 19.238 2.26249Z" fill="white"/>
</g>
<defs>
<clipPath id="clip0_218_12768">
<rect width="19.4407" height="19.4407" fill="white" transform="scale(1.02876)"/>
</clipPath>
</defs>
</svg>
