<svg width="19" height="68" viewBox="0 0 19 68" fill="none" xmlns="http://www.w3.org/2000/svg">
<path d="M1.00117 7.29416C2.9859 -1.43062 15.9119 -1.42054 17.8866 7.30423C19.0452 12.4222 15.8616 16.7544 13.0708 19.4343C11.0458 21.3888 7.84201 21.3888 5.80685 19.4343C3.0262 16.7544 -0.157436 12.4122 1.00117 7.29416Z" stroke="#212121" stroke-width="1.5"/>
<path d="M10.9433 11.4065H7.68582L7.12611 12.8454H5.794L8.58136 5.79301H10.059L12.8464 12.8454H11.5031L10.9433 11.4065ZM10.5851 10.4642L9.32018 7.19132L8.04403 10.4642H10.5851Z" fill="#212121"/>
<path d="M1.00117 53.6383C2.9859 44.9135 15.9119 44.9235 17.8866 53.6483C19.0452 58.7663 15.8616 63.0985 13.0708 65.7784C11.0458 67.7329 7.84201 67.7329 5.80685 65.7784C3.0262 63.0985 -0.157436 58.7563 1.00117 53.6383Z" stroke="#212121" stroke-width="1.5"/>
<path d="M10.5049 56.0569C10.8765 56.1342 11.1918 56.3622 11.4506 56.7411C11.7095 57.1199 11.8389 57.549 11.8389 58.0283C11.8389 58.4381 11.746 58.8092 11.5601 59.1416C11.3809 59.4663 11.1188 59.7253 10.7737 59.9186C10.4285 60.1042 10.027 60.1969 9.56906 60.1969H6.80148V52.1371H9.43964C9.91086 52.1371 10.3157 52.2299 10.6542 52.4154C10.9927 52.601 11.2482 52.8522 11.4208 53.1692C11.5933 53.4785 11.6796 53.8264 11.6796 54.2129C11.6796 54.6768 11.5734 55.0634 11.361 55.3726C11.1486 55.6819 10.8633 55.91 10.5049 56.0569ZM7.93638 55.5234H9.34009C9.71175 55.5234 10.0005 55.4268 10.2062 55.2335C10.4186 55.0325 10.5248 54.7464 10.5248 54.3753C10.5248 54.0119 10.4186 53.7297 10.2062 53.5287C10.0005 53.32 9.71175 53.2156 9.34009 53.2156H7.93638V55.5234ZM9.46951 59.1184C9.85445 59.1184 10.1564 59.0102 10.3754 58.7937C10.5945 58.5772 10.704 58.2757 10.704 57.8892C10.704 57.4949 10.5878 57.1818 10.3555 56.9498C10.1232 56.7179 9.81462 56.6019 9.42969 56.6019H7.93638V59.1184H9.46951Z" fill="#212121"/>
<circle cx="9.82392" cy="27.9527" r="1.00748" fill="#D9D9D9"/>
<circle cx="9.82392" cy="33.9975" r="1.00748" fill="#D9D9D9"/>
<circle cx="9.82392" cy="40.0424" r="1.00748" fill="#D9D9D9"/>
</svg>
