<svg width="14" height="14" viewBox="0 0 14 14" fill="none" xmlns="http://www.w3.org/2000/svg">
<g clip-path="url(#clip0_193_10634)">
<path d="M7.73294 13.4597C7.49536 13.486 7.25259 13.4992 7.01181 13.4992C6.87357 13.4992 6.76172 13.6112 6.76172 13.7493C6.76172 13.8874 6.87357 13.9994 7.01181 13.9994C7.27088 13.9994 7.53194 13.9852 7.78761 13.9569C7.92482 13.9418 8.02397 13.8183 8.00889 13.6809C7.99374 13.5437 7.87091 13.445 7.73294 13.4597Z" fill="black"/>
<path d="M9.80697 12.8696C9.59038 12.9731 9.36545 13.0651 9.13911 13.1434C9.0087 13.1886 8.93933 13.3309 8.98451 13.4614C9.02045 13.565 9.11709 13.63 9.22086 13.63C9.24795 13.63 9.2756 13.6254 9.30269 13.6162C9.54661 13.5316 9.78887 13.4324 10.0223 13.3209C10.1468 13.2614 10.1999 13.1122 10.1403 12.9876C10.0809 12.8629 9.93128 12.8097 9.80697 12.8696Z" fill="black"/>
<path d="M10.2207 0.772851C9.99088 0.654192 9.75183 0.547341 9.5106 0.455251C9.38238 0.406029 9.23709 0.470396 9.1878 0.599708C9.13871 0.728763 9.20346 0.87322 9.33239 0.922377C9.55629 1.00786 9.77801 1.10701 9.99127 1.21726C10.0279 1.23619 10.0672 1.24511 10.1058 1.24511C10.1964 1.24511 10.2838 1.19576 10.3282 1.10983C10.3913 0.987129 10.3433 0.836319 10.2207 0.772851Z" fill="black"/>
<path d="M3.8509 12.6809C3.64092 12.5636 3.43576 12.4337 3.24111 12.2949C3.1283 12.215 2.97248 12.2409 2.89213 12.3532C2.81204 12.4656 2.83816 12.6218 2.95047 12.702C3.16 12.8516 3.38102 12.9914 3.6071 13.1176C3.64567 13.1392 3.68745 13.1493 3.72871 13.1493C3.81638 13.1493 3.9016 13.1032 3.94729 13.0211C4.01474 12.9004 3.97149 12.7481 3.8509 12.6809Z" fill="black"/>
<path d="M5.88265 13.402C5.6463 13.3606 5.40988 13.3054 5.17988 13.238C5.04755 13.1989 4.90855 13.2751 4.86953 13.4076C4.8307 13.5401 4.90662 13.679 5.03927 13.7179C5.28686 13.7905 5.54156 13.85 5.79627 13.8945C5.81091 13.8971 5.8256 13.8983 5.83972 13.8983C5.95889 13.8983 6.06465 13.8128 6.08589 13.6914C6.10951 13.5553 6.01864 13.4258 5.88265 13.402Z" fill="black"/>
<path d="M5.00697 0.799027C5.03142 0.799027 5.05651 0.795369 5.08122 0.787668C5.31 0.716626 5.54565 0.65765 5.78136 0.612471C5.9169 0.586609 6.00578 0.455564 5.97985 0.319899C5.95393 0.184234 5.82237 0.0956093 5.68709 0.121407C5.43341 0.169988 5.17966 0.233456 4.93278 0.310081C4.8009 0.351088 4.72717 0.491117 4.76817 0.62306C4.80135 0.730167 4.90025 0.799027 5.00697 0.799027Z" fill="black"/>
<path d="M13.3773 5.66551C13.4264 5.90141 13.4625 6.14155 13.485 6.37932C13.4972 6.50889 13.6061 6.60592 13.7336 6.60592C13.7414 6.60592 13.7492 6.60553 13.7573 6.60483C13.8947 6.59186 13.9959 6.46987 13.9826 6.33241C13.9587 6.07635 13.9196 5.81779 13.8671 5.56392C13.8388 5.42864 13.7055 5.34136 13.5714 5.36992C13.4361 5.3979 13.3494 5.53023 13.3773 5.66551Z" fill="black"/>
<path d="M13.7405 7.60399C13.6004 7.58576 13.4782 7.68395 13.4612 7.82083C13.4314 8.05783 13.3877 8.29662 13.3313 8.53086C13.2988 8.66505 13.3813 8.8002 13.5157 8.83254C13.5354 8.83729 13.555 8.83947 13.5745 8.83947C13.6873 8.83947 13.7897 8.76253 13.8172 8.64804C13.8781 8.3959 13.9252 8.13862 13.9574 7.88334C13.9748 7.74626 13.8775 7.62118 13.7405 7.60399Z" fill="black"/>
<path d="M11.5121 1.63366C11.4064 1.54504 11.2489 1.55871 11.1597 1.66421C11.0708 1.7699 11.0845 1.92771 11.1903 2.01659C11.3737 2.1708 11.5509 2.33708 11.7168 2.51086C11.7661 2.5624 11.8318 2.58826 11.8977 2.58826C11.9597 2.58826 12.022 2.56528 12.0704 2.51901C12.1702 2.42365 12.1739 2.2654 12.0786 2.16554C11.9002 1.97847 11.7095 1.79962 11.5121 1.63366Z" fill="black"/>
<path d="M11.5734 11.6308C11.4024 11.7992 11.2203 11.9598 11.0317 12.1082C10.9233 12.1937 10.9047 12.3509 10.9902 12.4594C11.0396 12.522 11.1128 12.5547 11.1868 12.5547C11.2408 12.5547 11.2954 12.5373 11.3413 12.5011C11.5441 12.3413 11.7404 12.1684 11.9245 11.9871C12.0227 11.8901 12.0239 11.7319 11.9272 11.6335C11.8303 11.5352 11.6723 11.5336 11.5734 11.6308Z" fill="black"/>
<path d="M13.1743 9.77196C13.0507 9.71054 12.9003 9.76118 12.8392 9.88503C12.733 10.0992 12.6131 10.3102 12.4832 10.5124C12.4085 10.6286 12.4419 10.7832 12.5581 10.8579C12.5999 10.8849 12.6468 10.8977 12.6932 10.8977C12.7754 10.8977 12.8558 10.8571 12.9036 10.7829C13.0438 10.5652 13.1727 10.3378 13.287 10.1069C13.3486 9.98328 13.2978 9.83325 13.1743 9.77196Z" fill="black"/>
<path d="M0.771489 8.82987C0.732663 8.69761 0.594174 8.6213 0.46114 8.66038C0.328556 8.69921 0.252573 8.83815 0.291399 8.97073C0.364173 9.21812 0.451578 9.46462 0.551947 9.70361C0.591992 9.79935 0.684789 9.85711 0.782462 9.85711C0.814678 9.85711 0.847664 9.85076 0.879173 9.8376C1.00662 9.78414 1.0665 9.63763 1.01298 9.51025C0.919988 9.2884 0.838679 9.05955 0.771489 8.82987Z" fill="black"/>
<path d="M0.523137 7.41058C0.514602 7.27408 0.51043 7.13636 0.51043 6.99838C0.510687 6.89449 0.513126 6.79091 0.517746 6.68816C0.5241 6.55019 0.417377 6.4332 0.279402 6.42685C0.143865 6.42332 0.0244365 6.52709 0.0180832 6.66519C0.0129492 6.77531 0.0105106 6.88595 0.0102539 6.99774C0.0102539 7.14682 0.0148745 7.29481 0.0239231 7.44157C0.0322016 7.57416 0.142133 7.67613 0.273241 7.67613C0.278375 7.67613 0.283766 7.676 0.2889 7.67562C0.426939 7.66715 0.531672 7.54842 0.523137 7.41058Z" fill="black"/>
<path d="M1.30883 3.37575C1.35214 3.40553 1.40149 3.41977 1.45033 3.41977C1.52997 3.41977 1.60807 3.38191 1.65646 3.31145C1.792 3.11488 1.94043 2.92293 2.09849 2.741C2.18885 2.63659 2.17762 2.47872 2.07334 2.3883C1.9688 2.29794 1.81131 2.30891 1.72051 2.41332C1.55076 2.60931 1.39059 2.81602 1.24484 3.02799C1.16642 3.14164 1.1953 3.29746 1.30883 3.37575Z" fill="black"/>
<path d="M7.21741 0.499619C7.45768 0.507064 7.69968 0.52792 7.93636 0.56174C7.94855 0.563345 7.96029 0.564179 7.97204 0.564179C8.09461 0.564179 8.20159 0.474206 8.21943 0.349387C8.23894 0.212631 8.14377 0.0860144 8.00721 0.0665695C7.75205 0.0301825 7.49169 0.00772141 7.23307 -0.000364589C7.09727 -0.00466428 6.97958 0.103662 6.97521 0.241894C6.97104 0.379934 7.07943 0.49532 7.21741 0.499619Z" fill="black"/>
<path d="M0.435671 5.43965C0.457875 5.44587 0.480079 5.44883 0.502348 5.44883C0.612022 5.44883 0.712584 5.37605 0.743131 5.26503C0.806856 5.03387 0.884508 4.80387 0.973646 4.58125C1.02518 4.45316 0.962865 4.30748 0.834708 4.25608C0.706231 4.20467 0.560939 4.26686 0.509664 4.39514C0.413466 4.63496 0.329719 4.88293 0.261052 5.132C0.224216 5.26529 0.302573 5.40307 0.435671 5.43965Z" fill="black"/>
<path d="M12.9276 4.29605C12.9696 4.38788 13.0602 4.44198 13.1552 4.44198C13.1899 4.44198 13.2253 4.43479 13.259 4.41926C13.3848 4.36176 13.4397 4.21339 13.3823 4.08773C13.2744 3.85234 13.1525 3.6208 13.0197 3.39972C12.9486 3.28145 12.7952 3.24281 12.6766 3.31411C12.5582 3.38528 12.5198 3.53891 12.5908 3.65732C12.7141 3.86248 12.8275 4.07734 12.9276 4.29605Z" fill="black"/>
<path d="M3.00863 1.81113C3.0601 1.81113 3.11208 1.79528 3.15674 1.76229C3.3494 1.61996 3.55257 1.48686 3.76043 1.36647C3.87986 1.29735 3.92087 1.14436 3.85156 1.02486C3.78219 0.905179 3.62984 0.8643 3.50996 0.933737C3.28605 1.06331 3.06748 1.20661 2.85994 1.35986C2.74885 1.44187 2.72511 1.59859 2.80718 1.70967C2.85628 1.77596 2.93194 1.81113 3.00863 1.81113Z" fill="black"/>
<path d="M1.71594 10.7697C1.63559 10.6572 1.47933 10.6311 1.36721 10.7112C1.25465 10.7914 1.22853 10.9476 1.30862 11.0601C1.45783 11.2693 1.62122 11.4735 1.79436 11.6669C1.84371 11.7222 1.91206 11.7503 1.98066 11.7503C2.04002 11.7503 2.09957 11.7293 2.14745 11.6865C2.25026 11.5945 2.25905 11.4365 2.16696 11.3336C2.00626 11.1537 1.85436 10.9641 1.71594 10.7697Z" fill="black"/>
<path d="M6.99875 3.11084C4.85431 3.11084 3.10986 4.85551 3.10986 6.99973C3.10986 9.14395 4.85431 10.8886 6.99875 10.8886C9.14319 10.8886 10.8876 9.14395 10.8876 6.99973C10.8876 4.85551 9.1433 3.11084 6.99875 3.11084ZM7.00049 6.49988C5.33289 6.49988 3.97405 6.99973 3.97405 6.99973C3.97405 6.99973 5.83289 7.99988 7.50049 7.99988C9.16809 7.99988 10.0235 6.99973 10.0235 6.99973C10.0235 6.99973 8.6682 6.49988 7.00049 6.49988Z" fill="black"/>
</g>
<defs>
<clipPath id="clip0_193_10634">
<rect width="14" height="14" fill="white"/>
</clipPath>
</defs>
</svg>
