<svg width="20" height="20" viewBox="0 0 20 20" fill="none" xmlns="http://www.w3.org/2000/svg">
<path d="M16.25 0H3.75C1.67969 0 0 1.67844 0 3.75V16.25C0 16.9409 0.559062 17.5 1.25 17.5H2.5V18.75C2.5 19.4409 3.05906 20 3.75 20H5C5.69094 20 6.25 19.4409 6.25 18.75V17.5H13.75V18.75C13.75 19.4409 14.3091 20 15 20H16.25C16.9409 20 17.5 19.4409 17.5 18.75V17.5H18.75C19.4409 17.5 20 16.9409 20 16.25V3.75C20 1.67969 18.3216 0 16.25 0ZM5 13.75C4.30906 13.75 3.75 13.1909 3.75 12.5C3.75 11.8091 4.30906 11.25 5 11.25C5.69094 11.25 6.25 11.8091 6.25 12.5C6.25 13.1909 5.69094 13.75 5 13.75ZM15 13.75C14.3091 13.75 13.75 13.1909 13.75 12.5C13.75 11.8091 14.3091 11.25 15 11.25C15.6909 11.25 16.25 11.8091 16.25 12.5C16.25 13.1909 15.6909 13.75 15 13.75ZM17.5 7.5H2.5V3.75C2.5 3.05906 3.05906 2.5 3.75 2.5H16.25C16.9409 2.5 17.5 3.05906 17.5 3.75V7.5Z" fill="black"/>
</svg>
