<svg width="19" height="19" viewBox="0 0 19 19" fill="none" xmlns="http://www.w3.org/2000/svg">
<path fill-rule="evenodd" clip-rule="evenodd" d="M15.7917 4.52394L16.2911 5.77261C16.8961 5.9071 17.4979 6.05979 18.096 6.23066C18.631 6.38355 19 6.87265 19 7.42917V11.6662C19 14.3174 16.8507 16.4667 14.1996 16.4667H13.5128C13.1499 16.4667 12.8159 16.2685 12.6421 15.9498C11.2856 13.4628 7.71447 13.4628 6.35791 15.9498C6.18411 16.2685 5.85014 16.4667 5.48718 16.4667H4.80046C2.14924 16.4667 0 14.3174 0 11.6662V7.42917C0 6.87265 0.368925 6.38355 0.904034 6.23066C1.50208 6.05979 2.10396 5.9071 2.70885 5.77261L3.20831 4.52394C3.68921 3.32169 4.85362 2.53335 6.1485 2.53335H12.8515C14.1464 2.53335 15.3109 3.32169 15.7917 4.52394ZM4.38438 4.99437C4.67293 4.27303 5.37157 3.80001 6.1485 3.80001H12.8515C13.6285 3.80001 14.3272 4.27303 14.6156 4.99437L14.8101 5.48062C11.2961 4.87547 7.70395 4.87547 4.18988 5.48062L4.38438 4.99437Z" fill="white"/>
</svg>
