<svg width="23" height="23" viewBox="0 0 23 23" fill="none" xmlns="http://www.w3.org/2000/svg">
<g clip-path="url(#clip0_218_12760)">
<path d="M8.31765 10.0242C8.42933 10.0242 8.54069 10.0276 8.65169 10.0353C9.18536 8.21193 10.537 6.76724 12.2704 6.09377C11.5009 4.90321 10.1634 4.11469 8.64055 4.11469C6.40564 4.11469 4.56663 5.8122 4.34332 7.98858C4.02994 7.89146 3.69694 7.8393 3.35207 7.8393C1.50089 7.83935 0 9.33992 0 11.1911C0 13.0426 1.50089 14.5431 3.35203 14.5431H3.38554C3.6062 12.0147 5.73316 10.0242 8.31765 10.0242Z" fill="white"/>
<path d="M19.5239 11.9352C19.5226 11.9352 19.5212 11.9356 19.5195 11.9356C19.5216 11.8777 19.5239 11.8199 19.5239 11.7617C19.5239 8.97847 17.268 6.72258 14.4852 6.72258C11.8784 6.72258 9.73379 8.70229 9.47288 11.2405C9.1074 11.1274 8.71959 11.0665 8.31682 11.0665C6.15769 11.0665 4.4074 12.8168 4.4074 14.976C4.4074 17.135 6.15769 18.8854 8.31682 18.8854H19.5239C21.4431 18.8854 22.9992 17.3297 22.9992 15.4105C22.9992 13.491 21.4431 11.9352 19.5239 11.9352Z" fill="white"/>
</g>
<defs>
<clipPath id="clip0_218_12760">
<rect width="22.2627" height="22.2627" fill="white" transform="scale(1.03312)"/>
</clipPath>
</defs>
</svg>
