<svg width="386" height="340" viewBox="0 0 386 340" fill="none" xmlns="http://www.w3.org/2000/svg">
<g opacity="0.4">
<g opacity="0.3">
</g>
<path d="M45.7391 26.6928L49.1357 30.5684L56.5389 39.5955C56.9776 40.1305 57.3289 40.7317 57.5795 41.3766L58.6027 44.0096L61.2292 48.7853C61.5491 49.3668 61.7786 49.9936 61.9101 50.6441L65.109 66.4673L66.5078 75.8275C66.5882 76.3657 66.7354 76.8917 66.9459 77.3935L75.1469 96.9416C75.3269 97.3708 75.4608 97.818 75.546 98.2756L76.1217 101.364C76.1884 101.722 76.2848 102.074 76.4098 102.415L77.9332 106.578L85.3906 122.162L101.302 152.806M101.629 153.436L98.3005 157.807C98.0229 158.172 97.7878 158.567 97.5999 158.985V158.985C97.1808 159.917 97.0062 160.941 97.0926 161.959L97.4698 166.407C97.5117 166.901 97.4974 167.399 97.4271 167.889L96.8875 171.658C96.7684 172.491 96.49 173.292 96.0677 174.019L91.6615 181.607C91.4563 181.96 91.2185 182.294 90.9511 182.603L83.8042 190.865C83.384 191.351 83.0376 191.895 82.776 192.482L80.8111 196.887C80.4246 197.753 80.2309 198.694 80.2435 199.642L80.3373 206.695C80.3435 207.161 80.3994 207.625 80.504 208.079L81.2449 211.294C81.3392 211.703 81.4728 212.103 81.6437 212.486L88.1545 227.113L100.336 249.309M101.629 153.436L125.514 173.388C125.785 173.615 126.037 173.862 126.268 174.129L129.808 178.22C131.317 180.502 134.431 185.191 134.824 185.683C135.216 186.176 137.979 190.164 139.312 192.096L142.55 196.236C143.169 197.028 143.597 197.951 143.802 198.934L144.434 201.961M101.629 153.436L101.302 152.806M100.336 249.309L114.754 276.793C114.9 277.073 115.067 277.341 115.253 277.597L122.595 287.714C122.808 288.007 123.044 288.281 123.301 288.535L126.444 291.629C126.957 292.134 127.548 292.55 128.196 292.862L132.244 294.813L142.895 298.95L149.987 301.582C150.386 301.73 150.799 301.839 151.219 301.907L151.84 302.007C152.772 302.158 153.724 302.105 154.633 301.854L155.795 301.532C156.382 301.37 156.943 301.127 157.462 300.81L159.596 299.506L163.756 296.262C164.133 295.967 164.542 295.715 164.975 295.509L166.009 295.018L170.884 293.071L176.631 290.726C177.313 290.447 177.944 290.055 178.496 289.567L186.427 282.549L191.427 278.377C192.178 277.751 193.058 277.301 194.005 277.06L197.19 276.247C197.539 276.158 197.896 276.098 198.255 276.068L202.501 275.707M100.336 249.309L113.474 225.935C113.852 225.262 114.346 224.661 114.934 224.161L128.536 212.56C128.956 212.202 129.419 211.899 129.915 211.657L140.471 206.506C141.609 205.951 142.562 205.078 143.214 203.992L144.434 201.961M100.336 249.309L79.1075 278.063L61.095 301.484C60.6071 302.118 60.0069 302.658 59.3244 303.076L0.570139 339.069M202.501 275.707L202.559 276.389C202.619 277.09 202.565 277.797 202.399 278.481L202.388 278.527C202.134 279.581 201.621 280.555 200.897 281.362L195.193 287.722L186.612 297.654L178.832 306.649C178.564 306.958 178.327 307.291 178.121 307.644L171.737 318.638M202.501 275.707L205.478 275.804C205.982 275.821 206.487 275.779 206.982 275.679L212.87 274.496C213.473 274.374 214.055 274.169 214.6 273.886L223.853 269.076L233.78 262.098L243.884 254.338C244.414 253.93 244.879 253.444 245.262 252.896L248.593 248.132L252.873 241.217C253.355 240.439 253.994 239.771 254.75 239.255L257.591 237.315C258.106 236.963 258.669 236.687 259.263 236.494L272.731 232.123C275.574 231.2 278.682 232.32 280.284 234.844L282.596 238.487C283.273 239.553 284.243 240.401 285.39 240.929L290.474 243.266L299.166 247.569L307.276 252.69C307.58 252.882 307.867 253.099 308.136 253.338L315.405 259.814C315.975 260.322 316.629 260.726 317.338 261.009L320.483 262.262C320.996 262.466 321.533 262.605 322.081 262.674L329.014 263.556C330.03 263.685 331.002 264.051 331.851 264.624L338.928 269.398M202.501 275.707L200.937 266.277C200.786 265.371 200.828 264.443 201.06 263.554L202.33 258.676C202.569 257.759 202.606 256.801 202.438 255.868L194.38 210.989C194.116 209.519 193.358 208.183 192.231 207.203L186.656 202.356C186.329 202.072 186.032 201.756 185.767 201.413L182.226 196.822M338.928 269.398L341.179 272.075C341.625 272.605 342.152 273.061 342.741 273.427L359.893 284.056L385.066 299.233M338.928 269.398L344.208 259.592C344.719 258.643 344.987 257.583 344.991 256.505L345.018 246.993C345.021 246.109 344.844 245.233 344.499 244.418L340.349 234.628C340.178 234.222 339.965 233.836 339.716 233.473L329.842 219.109L326.596 213.794C326.053 212.906 325.307 212.159 324.419 211.617L317.451 207.363M237.459 160.764L245.346 169.253C245.871 169.819 246.292 170.472 246.59 171.184L251.362 182.594L253.48 189.208M237.459 160.764L216.577 178.141C216.037 178.591 215.427 178.95 214.772 179.206L205.857 182.692C204.84 183.089 203.939 183.734 203.235 184.569L202.702 185.2C202.184 185.815 201.557 186.328 200.852 186.716L183.074 196.493M237.459 160.764L201.223 95.2464M237.459 160.764L296.109 112.22C296.728 111.708 297.248 111.086 297.642 110.385L310.375 87.7435L299.513 108.317C298.31 110.596 298.554 113.368 300.138 115.401L316.997 137.044C317.777 138.045 318.249 139.251 318.356 140.516L318.56 142.917C318.634 143.787 318.533 144.663 318.263 145.493L317.977 146.376M183.074 196.493L144.803 127.642M183.074 196.493L182.226 196.822M183.074 196.493L83.9029 21.9226L144.803 127.642M144.434 201.961V201.961C144.602 201.682 144.922 201.533 145.243 201.585L151.374 202.577C152.242 202.717 153.131 202.574 153.911 202.169V202.169C154.762 201.727 155.742 201.598 156.679 201.806L157.598 202.01C158.394 202.186 159.215 202.213 160.021 202.088L173.675 199.969C174.14 199.897 174.597 199.775 175.036 199.605L182.226 196.822M101.302 152.806L144.803 127.642M144.803 127.642L201.223 95.2464M201.223 95.2464L268 57.1906C268.355 56.9887 268.727 56.8203 269.113 56.6876L294.717 47.8785C295.835 47.4935 296.829 46.8127 297.592 45.9083L312.014 28.8137C312.633 28.0804 313.083 27.2201 313.332 26.2937L317.374 11.2925C317.645 10.285 318.154 9.35695 318.856 8.58557L326.007 0.735162M201.223 95.2464L194.109 80.8348C193.408 79.4134 193.245 77.7857 193.652 76.2536L196.031 67.2989C196.128 66.9324 196.257 66.575 196.416 66.2308L203.912 50.0231C204.306 49.1707 204.513 48.2435 204.517 47.3043L204.571 35.9002C204.577 34.685 204.244 33.4922 203.611 32.4551L191.602 12.7899M317.451 207.363V207.363C316.241 206.624 314.677 206.839 313.713 207.878L311.628 210.124C311.181 210.605 310.664 211.017 310.094 211.344L297.999 218.303L283.648 227.067C280.537 228.967 276.474 227.962 274.607 224.831L263.946 206.947L257.621 196.965L255.25 193.679C254.847 193.12 254.534 192.5 254.324 191.844L253.48 189.208M317.451 207.363L313.33 158.766C313.23 157.592 313.449 156.413 313.964 155.353L317.282 148.516L317.977 146.376M253.48 189.208L266.305 183.08L296.252 164.105L317.977 146.376" stroke="#ADADAD" stroke-width="2.181"/>
</g>
</svg>
