<svg width="21" height="21" viewBox="0 0 21 21" fill="none" xmlns="http://www.w3.org/2000/svg">
<path d="M10.5 1.96875C6.89062 1.96875 3.9375 4.92188 3.9375 8.53125C3.9375 14.0437 9.84375 18.7031 10.1062 18.9C10.2375 18.9656 10.3688 19.0312 10.5 19.0312C10.6312 19.0312 10.7625 18.9656 10.8938 18.9C11.1563 18.7031 17.0625 14.0437 17.0625 8.53125C17.0625 4.92188 14.1094 1.96875 10.5 1.96875ZM10.5 11.1562C9.05625 11.1562 7.875 9.975 7.875 8.53125C7.875 7.0875 9.05625 5.90625 10.5 5.90625C11.9438 5.90625 13.125 7.0875 13.125 8.53125C13.125 9.975 11.9438 11.1562 10.5 11.1562Z" fill="#006C35"/>
</svg>
