<svg width="172" height="105" viewBox="0 0 172 105" fill="none" xmlns="http://www.w3.org/2000/svg">
<path d="M171.066 104.146L155.258 78.0325L148.93 68.045L146.558 64.7573C146.154 64.1978 145.841 63.5781 145.631 62.921L144.786 60.284L142.668 53.6668L137.893 42.2509C137.595 41.5386 137.173 40.8845 136.648 40.3189L133.013 36.406C130.63 33.8419 126.654 33.602 123.981 35.8612L112.344 45.6958C109.547 48.0593 105.356 47.673 103.039 44.8382L102.221 43.8374C101.363 42.788 100.201 42.0304 98.8943 41.669L85.2425 37.8913L82.0033 36.8818C81.2824 36.6571 80.6058 36.3095 80.0033 35.8544L77.2748 33.7936C76.4859 33.1977 75.842 32.431 75.3913 31.551L67.8008 16.7276L62.73 8.18988C60.9037 5.11485 56.9494 4.07172 53.8439 5.84578L30.9598 18.9187C28.6751 20.2239 25.8313 20.0362 23.738 18.4421L0.661762 0.869022" stroke="white" stroke-width="2.181"/>
</svg>
